<?xml version="1.0" encoding="utf-8"?>
<!-- Generator: Adobe Illustrator 16.0.0, SVG Export Plug-In . SVG Version: 6.00 Build 0)  -->
<!DOCTYPE svg PUBLIC "-//W3C//DTD SVG 1.1//EN" "http://www.w3.org/Graphics/SVG/1.1/DTD/svg11.dtd">
<svg version="1.1" id="Layer_1" xmlns="http://www.w3.org/2000/svg" xmlns:xlink="http://www.w3.org/1999/xlink" x="0px" y="0px"
	 width="691px" height="691px" viewBox="0 0 691 691" enable-background="new 0 0 691 691" xml:space="preserve">
<rect fill="#019FC2" width="691" height="691"/>
<g>
	<path fill-rule="evenodd" clip-rule="evenodd" fill="#00A3C9" d="M651.777,153.136c0.534-0.071,1.077-0.214,1.699,0.387
		c0,134.861,0,269.901,0.001,404.943c-0.335-0.029-0.671-0.061-1.007-0.092c-0.158-0.983-0.965-1.36-1.669-1.883
		c-24.626-18.303-49.247-36.614-73.858-54.937c-11.696-8.707-23.386-17.423-35.047-26.174c-1.807-1.355-3.629-2.145-5.983-2.022
		c-3.663,0.19-7.344,0.051-10.923,0.051c-0.688-2.007-0.391-3.635-0.361-5.248c1.495-0.132,3.039,0.327,4.828-0.457
		c-0.678-72.734,2.08-145.523,2.412-218.631c-1.482,0-2.664-0.001-3.847,0c-15.509,0.025-31.018,0.042-46.525,0.081
		c-4.469,0.011-8.938,0.086-13.407,0.131c-1.244,0.49-2.245,1.295-3.041,2.333c0,5.788,0,11.546,0,17.305
		c-0.089,0.419-0.177,0.84-0.266,1.26c-2.455,6.516-3.834,13.367-6.073,19.931c-1.91,5.598-2.364,11.202-2.337,17.013
		c0.088,18.872,0.044,37.745-0.019,56.617c-0.009,2.7,0.407,5.439-0.388,8.108c-5.119-9.605-9.725-19.481-14.377-29.3
		c-6.013-12.687-12.296-25.252-18.051-38.067c-6.136-13.665-12.649-27.159-19.01-40.722c-2.301-4.907-4.633-9.799-6.945-14.687
		c-1.501,0-2.696-0.004-3.893,0.001c-12.981,0.058-25.964,0.128-38.945,0.171c-10.466,0.034-20.933,0.034-31.397,0.048
		c-1.065,0.729-2.131,1.458-3.01,2.06c-0.66,3-0.106,5.666,0.312,8.339c-1.161,0.155-1.141,1.099-1.363,1.943
		c-2.82,10.739-5.626,21.482-8.521,32.202c-1.139,4.219-2.293,8.388-1.762,12.847c0.515,4.315,0.839,8.653,1.249,12.981
		c0.585,6.167,1.332,12.324,1.715,18.503c0.43,6.948,1.573,13.845,1.499,20.827c-0.247-0.353-0.536-0.684-0.734-1.062
		c-14.781-28.17-29.573-56.334-44.317-84.522c-4.216-8.06-7.8-16.449-12.344-24.38c-21.609,0.388-43.014,0.237-64.868,0.065
		c1.263,2.564,2.259,4.586,3.255,6.608c-2.234,1.176-4.469,2.352-6.704,3.529c-0.812-0.421-1.226-1.157-1.631-1.937
		c-2.536-4.867-5.097-9.72-7.65-14.578c1.528-0.013,3.056-0.037,4.584-0.037c117.357-0.002,234.714-0.007,352.07,0.04
		c2.303,0.001,4.211-0.47,6.025-1.901c14.35-11.325,28.731-22.609,43.112-33.894c19.26-15.114,38.555-30.183,57.768-45.357
		C645.4,158.915,649.311,156.843,651.777,153.136z"/>
	<path fill-rule="evenodd" clip-rule="evenodd" fill="#4AC0DC" d="M651.777,153.136c-2.467,3.708-6.377,5.779-9.742,8.437
		c-19.213,15.174-38.508,30.243-57.768,45.357c-14.381,11.285-28.763,22.569-43.112,33.894c-1.814,1.432-3.723,1.902-6.025,1.901
		c-117.356-0.047-234.713-0.042-352.07-0.04c-1.528,0-3.056,0.024-4.584,0.037c-19.578-12.044-39.167-24.068-58.729-36.136
		c-24.384-15.042-48.726-30.152-73.135-45.153c-4.058-2.494-7.871-5.436-12.371-7.178l0.045,0.028
		c-0.272-0.234-0.543-0.468-0.815-0.702c-0.243-1.044,0.611-0.618,0.962-0.631c1.527-0.06,3.058-0.028,4.587-0.028
		c202.731-0.001,405.461-0.001,608.193,0.008C648.734,152.93,650.256,153.064,651.777,153.136z"/>
	<path fill-rule="evenodd" clip-rule="evenodd" fill="#3B7789" d="M524.629,468.161c-0.029,1.613-0.326,3.241,0.361,5.248
		c3.579,0,7.26,0.14,10.923-0.051c2.354-0.122,4.177,0.667,5.983,2.022c11.661,8.751,23.351,17.467,35.047,26.174
		c24.611,18.322,49.232,36.634,73.858,54.937c0.704,0.522,1.511,0.899,1.668,1.885c-0.044,0.256-0.087,0.51-0.13,0.765
		c-0.98,0.032-1.962,0.095-2.943,0.095c-127.806,0.004-255.612,0.004-383.418,0c-0.981,0-1.962-0.061-2.943-0.093
		c-0.218-0.182-0.437-0.362-0.655-0.544c0.355-0.907,0.645-1.847,1.075-2.716c12.726-25.719,25.469-51.428,38.194-77.146
		c0.626-1.267,1.096-2.61,1.67-3.903c0.634-1.425,0.396-2.751-0.326-4.07c-2.67-4.874-5.316-9.763-7.986-14.637
		c-9.844-17.967-19.711-35.921-29.534-53.898c-7.003-12.816-13.924-25.677-20.927-38.493c-9.875-18.074-19.783-36.131-29.695-54.184
		c-5.716-10.411-11.625-20.719-17.149-31.23c-3.337-6.348-7.324-12.364-9.945-19.085c2.234-1.177,4.469-2.353,6.704-3.529
		c0.317,0.438,0.685,0.849,0.943,1.319c7.924,14.445,15.986,28.818,23.725,43.361c26.806,50.373,54.616,100.213,80.306,151.179
		c2.692,5.342,5.425,10.664,8.126,15.972c0.777,0,1.317,0.001,1.857-0.001c24.561-0.067,49.122-0.505,73.684,0.098
		c0.265,1.803,0.53,3.604,0.821,5.581c8.079,0,16.064,0,24.039,0c0.264-0.934-0.287-1.547-0.639-2.188
		c-5.476-10.005-10.878-20.053-16.524-29.961c-1.339-2.349-1.748-5.392-4.463-6.871c-1.339-9.153-0.617-18.401-1.229-27.605
		c-0.69-10.373-0.994-20.794-1.378-31.195c-0.352-9.506-1.199-18.956-1.954-28.422c1.027,0.001,1.084,0.834,1.394,1.528
		c3.9,8.759,7.552,17.642,11.8,26.23c14.758,29.833,29.722,59.564,44.624,89.326c0.576,1.149,0.917,2.475,2.115,3.307
		c1.262,0,2.558,0,3.855,0c8.189-0.003,16.379-0.006,24.568-0.008c11.371,0.239,22.741,0.29,34.111-0.026
		c5.482,0.068,10.966,0.095,16.445,0.236C522.002,467.601,523.475,466.956,524.629,468.161z"/>
	<path fill-rule="evenodd" clip-rule="evenodd" fill="#1594A0" d="M187.756,259.236c2.621,6.721,6.607,12.737,9.945,19.085
		c5.524,10.511,11.433,20.82,17.149,31.23c9.913,18.053,19.82,36.11,29.695,54.184c7.003,12.816,13.924,25.676,20.927,38.493
		c9.823,17.978,19.69,35.932,29.534,53.898c2.67,4.874,5.316,9.763,7.986,14.637c0.722,1.319,0.959,2.646,0.326,4.07
		c-0.575,1.293-1.044,2.637-1.67,3.903c-12.725,25.718-25.468,51.427-38.194,77.146c-0.43,0.869-0.72,1.809-1.075,2.716
		c-0.208,0.017-0.415,0.031-0.623,0.044c-8.03-14.129-16.104-28.233-24.084-42.391C175.881,406.647,114.109,297.033,52.331,187.421
		c-5.733-10.171-11.477-20.336-17.178-30.526c-0.446-0.797-1.348-1.509-0.913-2.64c4.5,1.742,8.313,4.684,12.371,7.178
		c24.409,15,48.751,30.111,73.135,45.153c19.562,12.068,39.152,24.092,58.729,36.136c2.553,4.858,5.113,9.711,7.649,14.578
		C186.531,258.08,186.945,258.815,187.756,259.236z"/>
	<path fill-rule="evenodd" clip-rule="evenodd" fill="#4F8595" d="M652.34,559.141c0.043-0.255,0.086-0.509,0.13-0.765
		c0.337,0.029,0.673,0.061,1.008,0.09c0.1,0.168,0.323,0.442,0.281,0.491C653.356,559.428,652.84,559.258,652.34,559.141z"/>
	<path fill-rule="evenodd" clip-rule="evenodd" fill="#4F8595" d="M261.757,558.643c0.208-0.013,0.416-0.027,0.623-0.044
		c0.218,0.182,0.437,0.362,0.655,0.544C262.498,559.26,261.964,559.367,261.757,558.643z"/>
	<path fill-rule="evenodd" clip-rule="evenodd" fill="#1594A0" d="M33.471,153.581c0.271,0.234,0.543,0.468,0.815,0.702
		C33.663,154.456,33.617,153.96,33.471,153.581z"/>
	<path fill-rule="evenodd" clip-rule="evenodd" fill="#FEFEFE" d="M381.775,346.972c0.755,9.467,1.603,18.917,1.954,28.422
		c0.384,10.401,0.688,20.822,1.378,31.195c0.611,9.204-0.11,18.452,1.229,27.604c-0.329,5.282,1.084,10.497,0.603,15.794
		c-0.126,1.385-0.109,2.842,0.18,4.192c0.939,4.398,0.185,8.787,0.489,13.251c-1.73,0.078-3.118,0.141-4.507,0.203
		c-24.561-0.603-49.122-0.165-73.683-0.098c-0.54,0.002-1.08,0.001-1.857,0.001c-2.702-5.308-5.434-10.63-8.126-15.972
		c-25.69-50.966-53.5-100.806-80.306-151.179c-7.739-14.543-15.801-28.916-23.725-43.361c-0.258-0.471-0.626-0.881-0.943-1.319
		c-0.996-2.022-1.992-4.044-3.255-6.608c21.854,0.172,43.259,0.323,64.868-0.065c4.544,7.932,8.128,16.32,12.344,24.38
		c14.745,28.188,29.537,56.352,44.317,84.522c0.198,0.378,0.487,0.708,0.734,1.061c5.507,11.051,11.015,22.103,16.523,33.156
		c1.295,2.694,2.59,5.388,4.164,8.663c0.915-3.344-0.26-5.827-0.361-8.368c-0.276-6.931-1.187-13.817-1.415-20.772
		c-0.281-8.529-1.257-17.032-1.809-25.554c-0.337-5.197-0.127-10.446-0.755-15.6c-0.437-3.586-0.349-7.148-0.6-10.712
		c-0.562-7.972-1.292-15.932-1.925-23.899c-0.496-6.252-0.897-12.513-1.433-18.761c-0.795-9.288-1.67-18.569-2.511-27.854
		c10.465-0.015,20.932-0.015,31.397-0.048c12.981-0.042,25.964-0.113,38.945-0.171c1.196-0.005,2.392-0.001,3.893-0.001
		c2.312,4.888,4.645,9.78,6.945,14.687c6.36,13.563,12.874,27.058,19.01,40.722c5.755,12.815,12.038,25.38,18.051,38.067
		c4.652,9.819,9.258,19.695,14.377,29.299c3.241,6.762,6.484,13.525,9.727,20.289c1.224,2.627,2.447,5.253,4.011,8.609
		c-1.926-51.139,0.098-101.323-1.614-151.462c4.469-0.046,8.938-0.121,13.407-0.132c15.508-0.039,31.017-0.056,46.525-0.081
		c1.183-0.002,2.364,0,3.847,0c-0.332,73.108-3.09,145.897-2.412,218.631c-1.789,0.784-3.333,0.325-4.828,0.457
		c-1.154-1.205-2.627-0.561-3.94-0.596c-5.479-0.142-10.963-0.168-16.445-0.236c-0.182-0.116-0.364-0.334-0.546-0.334
		c-11.01-0.013-22.02-0.009-33.029,0.013c-0.179,0-0.357,0.227-0.536,0.348c-8.189,0.002-16.379,0.005-24.569,0.008
		c-7.987-17.35-16.849-34.268-25.321-51.377c-10.992-22.201-22.841-43.985-32.599-66.789c-2.032-4.751-4.062-9.503-6.322-14.79
		C380.402,339.108,381.771,343.006,381.775,346.972z"/>
	<path fill-rule="evenodd" clip-rule="evenodd" fill="#3B7789" d="M329.992,392.152c-5.509-11.053-11.017-22.104-16.523-33.156
		c0.074-6.981-1.069-13.878-1.499-20.826c-0.383-6.179-1.13-12.336-1.715-18.503c-0.41-4.328-0.734-8.666-1.249-12.981
		c-0.531-4.459,0.623-8.628,1.762-12.847c2.895-10.72,5.7-21.463,8.521-32.202c0.223-0.844,0.202-1.788,1.364-1.943
		c0.885,10.827,1.893,21.644,2.622,32.48c0.979,14.526,2.021,29.045,3.267,43.554c0.901,10.504,1.156,21.067,2.195,31.554
		c0.374,3.775,0.695,7.609,0.858,11.352C329.792,383.117,331.474,387.62,329.992,392.152z"/>
	<path fill-rule="evenodd" clip-rule="evenodd" fill="#3B7789" d="M465.693,392.139c-3.242-6.764-6.485-13.526-9.727-20.289
		c0.795-2.668,0.379-5.407,0.388-8.107c0.062-18.872,0.106-37.745,0.019-56.617c-0.027-5.811,0.427-11.415,2.337-17.013
		c2.239-6.563,3.618-13.415,6.073-19.93c0.233,0.034,0.466,0.067,0.698,0.101c0.022,32.618,0.016,65.236,0.1,97.854
		c0.015,5.541-0.305,11.084,0.499,16.637C466.422,387.139,466.858,389.745,465.693,392.139z"/>
	<path fill-rule="evenodd" clip-rule="evenodd" fill="#7F8285" d="M329.992,392.152c1.481-4.532-0.2-9.035-0.397-13.518
		c-0.163-3.743-0.484-7.577-0.858-11.352c-1.039-10.487-1.294-21.05-2.195-31.554c-1.245-14.508-2.288-29.027-3.267-43.554
		c-0.729-10.837-1.737-21.654-2.622-32.48c-0.42-2.673-0.974-5.339-0.313-8.339c0.879-0.602,1.944-1.331,3.01-2.06
		c0.841,9.284,1.716,18.565,2.511,27.854c0.535,6.249,0.937,12.509,1.433,18.761c0.633,7.967,1.363,15.927,1.925,23.899
		c0.251,3.564,0.163,7.126,0.6,10.712c0.628,5.154,0.418,10.403,0.755,15.6c0.552,8.521,1.527,17.025,1.809,25.554
		c0.229,6.955,1.139,13.842,1.415,20.772c0.102,2.541,1.276,5.024,0.361,8.368C332.582,397.54,331.287,394.847,329.992,392.152z"/>
	<path fill-rule="evenodd" clip-rule="evenodd" fill="#808185" d="M465.693,392.139c1.165-2.394,0.729-5,0.387-7.363
		c-0.804-5.553-0.484-11.097-0.499-16.637c-0.084-32.618-0.077-65.236-0.099-97.855c0.074-0.523,0.008-1.001-0.434-1.36
		c0-5.759,0-11.517,0-17.305c0.796-1.038,1.797-1.842,3.041-2.333c1.712,50.14-0.312,100.324,1.614,151.463
		C468.141,397.392,466.917,394.766,465.693,392.139z"/>
	<path fill-rule="evenodd" clip-rule="evenodd" fill="#5D8591" d="M465.049,268.922c0.441,0.359,0.508,0.837,0.434,1.36
		c-0.233-0.033-0.466-0.066-0.699-0.1C464.872,269.763,464.96,269.342,465.049,268.922z"/>
	<path fill-rule="evenodd" clip-rule="evenodd" fill="#818387" d="M381.775,346.972c-0.005-3.966-1.373-7.864-0.455-12.565
		c2.26,5.287,4.29,10.039,6.322,14.79c9.758,22.804,21.606,44.588,32.599,66.789c8.473,17.109,17.334,34.027,25.321,51.377
		c-1.297,0-2.593,0-3.854,0c-1.198-0.832-1.539-2.157-2.115-3.307c-14.902-29.762-29.866-59.493-44.624-89.326
		c-4.248-8.588-7.899-17.471-11.8-26.23C382.859,347.806,382.803,346.974,381.775,346.972z"/>
	<path fill-rule="evenodd" clip-rule="evenodd" fill="#01A3C9" d="M383.102,467.635c1.388-0.062,2.775-0.125,4.506-0.203
		c-0.305-4.464,0.45-8.853-0.489-13.251c-0.289-1.351-0.306-2.808-0.18-4.192c0.481-5.297-0.932-10.512-0.603-15.794
		c2.715,1.48,3.124,4.523,4.463,6.872c5.646,9.908,11.049,19.956,16.524,29.961c0.352,0.642,0.902,1.255,0.639,2.188
		c-7.975,0-15.96,0-24.039,0C383.632,471.239,383.366,469.438,383.102,467.635z"/>
	<path fill-rule="evenodd" clip-rule="evenodd" fill="#D5D7D7" d="M470.132,467.355c0.179-0.121,0.357-0.348,0.536-0.348
		c11.01-0.021,22.02-0.025,33.029-0.013c0.182,0,0.364,0.218,0.546,0.334C492.873,467.646,481.503,467.595,470.132,467.355z"/>
</g>
</svg>
