<?xml version="1.0" encoding="utf-8"?>
<!-- Generator: Adobe Illustrator 16.0.0, SVG Export Plug-In . SVG Version: 6.00 Build 0)  -->
<!DOCTYPE svg PUBLIC "-//W3C//DTD SVG 1.1//EN" "http://www.w3.org/Graphics/SVG/1.1/DTD/svg11.dtd">
<svg version="1.1" xmlns="http://www.w3.org/2000/svg" xmlns:xlink="http://www.w3.org/1999/xlink" x="0px" y="0px" width="2732px"
	 height="2732px" viewBox="0 0 2732 2732" enable-background="new 0 0 2732 2732" xml:space="preserve">
<g id="Layer_1">
	<title>safe-area</title>
	<desc>Created with Sketch.</desc>
	<g id="Page-1">
		
			<radialGradient id="Background_1_" cx="1060.6118" cy="1762.3555" r="0.6765" gradientTransform="matrix(2732 0 0 -2732 -2896225.5 4816120.5)" gradientUnits="userSpaceOnUse">
			<stop  offset="0" style="stop-color:#AA076B"/>
			<stop  offset="1" style="stop-color:#61045F"/>
		</radialGradient>
		<rect id="Background" fill="url(#Background_1_)" width="2732" height="2732"/>
		<text transform="matrix(1 0 0 1 936.7002 1418)" fill="#FFFFFF" font-family="'HelveticaNeue-Light'" font-size="200">(safe area)</text>
		<g id="_x33_:2-_x28_iPhone-4s_x29_" opacity="0.1">
			<rect id="Landscape-Crop-Area-_x28_Bottom_x29_" y="2278" fill="#FFFFFF" width="2733" height="454"/>
			<rect id="Landscape-Crop-Area-_x28_Top_x29_" fill="#FFFFFF" width="2733" height="454"/>
			<rect id="Portrait-Crop-Area-_x28_Right_x29_" x="2278" fill="#FFFFFF" width="454" height="2733"/>
			<rect id="Portrait-Crop-Area-_x28_Left_x29_" fill="#FFFFFF" width="454" height="2733"/>
		</g>
		
			<g id="_x31_6:9-_x28_iPhone-5_x2F_5S_x2F_5C_x2F_SE_x2F_6_x2F_6s_x2F_6-Plus_x2F_6s-Plus-_x2F_-Android-XXXHDPI_x29_" opacity="0.1">
			<rect id="Landscape-Crop-Area-_x28_Bottom_x29__1_" y="2134" fill="#FFFFFF" width="2733" height="598"/>
			<rect id="Landscape-Crop-Area-_x28_Top_x29__1_" fill="#FFFFFF" width="2733" height="598"/>
			<rect id="Portrait-Crop-Area-_x28_Left_x29__1_" fill="#FFFFFF" width="598" height="2733"/>
			<rect id="Portrait-Crop-Area-_x28_Right_x29__1_" x="2134" fill="#FFFFFF" width="598" height="2733"/>
		</g>
		<g id="_x34_:3-_x28_iPad-All_x29_" transform="translate(0.000000, 1.000000)" opacity="0.1">
			<rect id="Landscape-Crop-Area-_x28_Bottom_x29__2_" y="2391" fill="#FFFFFF" width="2733" height="342"/>
			<rect id="Landscape-Crop-Area-_x28_Top_x29__2_" fill="#FFFFFF" width="2733" height="342"/>
			<rect id="Portrait-Crop-Area-_x28_Left_x29__2_" fill="#FFFFFF" width="342" height="2733"/>
			<rect id="Portrait-Crop-Area-_x28_Right_x29__2_" x="2390" fill="#FFFFFF" width="342" height="2733"/>
		</g>
		<g id="Android-_x28_LDPI_x29_" opacity="0.1">
			<rect id="Landscape-Crop-Area-_x28_Bottom_x29__3_" y="2219" fill="#FFFFFF" width="2733" height="512.5"/>
			<rect id="Landscape-Crop-Area-_x28_Top_x29__3_" fill="#FFFFFF" width="2733" height="512.5"/>
			<rect id="Portrait-Crop-Area-_x28_Left_x29__3_" x="2220" fill="#FFFFFF" width="512.5" height="2733"/>
			<rect id="Portrait-Crop-Area-_x28_Right_x29__3_" fill="#FFFFFF" width="512.5" height="2733"/>
		</g>
		<g id="Android-_x28_MDPI_x29_" opacity="0.1">
			<rect id="Landscape-Crop-Area-_x28_Bottom_x29__4_" y="2275" fill="#FFFFFF" width="2732" height="454"/>
			<rect id="Landscape-Crop-Area-_x28_Top_x29__4_" fill="#FFFFFF" width="2732" height="454"/>
			<rect id="Portrait-Crop-Area-_x28_Left_x29__4_" x="2278" fill="#FFFFFF" width="454" height="2732"/>
			<rect id="Portrait-Crop-Area-_x28_Right_x29__4_" fill="#FFFFFF" width="454" height="2732"/>
		</g>
		<g id="Android-_x28_HDPI-_x2F_-XXHDPI_x29_" opacity="0.1">
			<rect id="Landscape-Crop-Area-_x28_Bottom_x29__5_" y="2189" fill="#FFFFFF" width="2732" height="545"/>
			<rect id="Landscape-Crop-Area-_x28_Top_x29__5_" fill="#FFFFFF" width="2732" height="545"/>
			<rect id="Portrait-Crop-Area-_x28_Left_x29__5_" x="2187" fill="#FFFFFF" width="545" height="2732"/>
			<rect id="Portrait-Crop-Area-_x28_Right_x29__5_" fill="#FFFFFF" width="545" height="2732"/>
		</g>
		<g id="Android-_x28_XHDPI_x29_" opacity="0.1">
			<rect id="Landscape-Crop-Area-_x28_Bottom_x29__6_" x="0.5" y="2135.5" fill="#FFFFFF" width="2732" height="599"/>
			<rect id="Landscape-Crop-Area-_x28_Top_x29__6_" fill="#FFFFFF" width="2732" height="597"/>
			<rect id="Portrait-Crop-Area-_x28_Left_x29__6_" x="2135" fill="#FFFFFF" width="597" height="2732"/>
			<rect id="Portrait-Crop-Area-_x28_Right_x29__6_" fill="#FFFFFF" width="597" height="2732"/>
		</g>
	</g>
</g>
<g id="background">
	<rect fill-rule="evenodd" clip-rule="evenodd" fill="#362D86" width="2734.5" height="2734.5"/>
</g>
<g id="w">
	<g>
		<path fill-rule="evenodd" clip-rule="evenodd" fill="#362D86" d="M1628.626,1196.92c0.465-0.062,0.937-0.186,1.478,0.336
			c0,117.262,0,234.679,0.001,352.1c-0.291-0.026-0.583-0.053-0.875-0.08c-0.138-0.855-0.839-1.184-1.452-1.637
			c-21.412-15.915-42.82-31.838-64.22-47.769c-10.17-7.571-20.334-15.148-30.473-22.758c-1.571-1.179-3.155-1.865-5.203-1.758
			c-3.185,0.164-6.385,0.044-9.497,0.044c-0.598-1.746-0.34-3.16-0.314-4.563c1.301-0.115,2.643,0.284,4.198-0.397
			c-0.589-63.242,1.809-126.533,2.098-190.101c-1.289,0-2.316-0.001-3.345,0c-13.485,0.022-26.97,0.037-40.454,0.071
			c-3.886,0.01-7.771,0.074-11.658,0.113c-1.081,0.427-1.951,1.126-2.644,2.028c0,5.033,0,10.04,0,15.046
			c-0.077,0.365-0.153,0.731-0.231,1.096c-2.134,5.667-3.333,11.623-5.28,17.33c-1.661,4.867-2.056,9.74-2.032,14.793
			c0.076,16.408,0.038,32.818-0.016,49.229c-0.008,2.347,0.354,4.728-0.337,7.049c-4.451-8.352-8.456-16.938-12.501-25.477
			c-5.228-11.031-10.691-21.957-15.695-33.099c-5.335-11.881-10.999-23.615-16.529-35.408c-2-4.266-4.028-8.521-6.039-12.77
			c-1.305,0-2.344-0.004-3.384,0c-11.288,0.05-22.576,0.112-33.863,0.149c-9.1,0.03-18.201,0.03-27.3,0.042
			c-0.926,0.634-1.853,1.269-2.617,1.792c-0.574,2.609-0.092,4.927,0.272,7.251c-1.01,0.135-0.992,0.955-1.186,1.689
			c-2.452,9.337-4.892,18.679-7.409,28c-0.99,3.668-1.994,7.293-1.532,11.17c0.448,3.752,0.729,7.524,1.086,11.288
			c0.508,5.361,1.158,10.715,1.491,16.087c0.374,6.042,1.368,12.039,1.304,18.11c-0.215-0.308-0.466-0.595-0.639-0.924
			c-12.853-24.494-25.713-48.982-38.534-73.491c-3.666-7.009-6.782-14.303-10.733-21.199c-18.789,0.338-37.4,0.207-56.402,0.058
			c1.098,2.23,1.964,3.988,2.83,5.745c-1.943,1.023-3.886,2.046-5.829,3.069c-0.705-0.366-1.065-1.005-1.418-1.684
			c-2.205-4.231-4.432-8.452-6.652-12.676c1.33-0.011,2.658-0.032,3.987-0.032c102.042-0.002,204.083-0.006,306.125,0.035
			c2.002,0.001,3.661-0.409,5.239-1.653c12.477-9.847,24.981-19.658,37.486-29.471c16.746-13.142,33.523-26.244,50.229-39.438
			C1623.081,1201.944,1626.481,1200.144,1628.626,1196.92z"/>
		<path fill-rule="evenodd" clip-rule="evenodd" fill="#6A55A4" d="M1628.626,1196.92c-2.145,3.224-5.545,5.024-8.471,7.335
			c-16.705,13.194-33.482,26.296-50.229,39.438c-12.505,9.813-25.01,19.624-37.486,29.471c-1.578,1.245-3.237,1.654-5.239,1.653
			c-102.042-0.041-204.084-0.037-306.125-0.035c-1.329,0-2.657,0.021-3.986,0.032c-17.022-10.472-34.056-20.928-51.065-31.42
			c-21.202-13.08-42.368-26.217-63.591-39.261c-3.529-2.167-6.844-4.727-10.756-6.241l0.039,0.025
			c-0.236-0.204-0.472-0.408-0.708-0.611c-0.211-0.907,0.532-0.537,0.837-0.548c1.327-0.053,2.658-0.024,3.987-0.024
			c176.275-0.001,352.55-0.001,528.825,0.007C1625.98,1196.741,1627.303,1196.858,1628.626,1196.92z"/>
		<path fill-rule="evenodd" clip-rule="evenodd" fill="#27214D" d="M1518.07,1470.835c-0.025,1.403-0.283,2.817,0.314,4.563
			c3.112,0,6.312,0.12,9.497-0.044c2.048-0.107,3.632,0.579,5.203,1.758c10.139,7.609,20.303,15.187,30.473,22.758
			c21.399,15.931,42.808,31.854,64.22,47.769c0.613,0.453,1.314,0.781,1.451,1.639c-0.038,0.222-0.076,0.443-0.113,0.663
			c-0.853,0.029-1.706,0.084-2.559,0.084c-111.128,0.003-222.256,0.003-333.383,0c-0.854,0-1.707-0.053-2.559-0.082
			c-0.19-0.158-0.381-0.313-0.57-0.472c0.308-0.79,0.56-1.606,0.935-2.362c11.065-22.362,22.146-44.717,33.209-67.077
			c0.545-1.103,0.953-2.271,1.452-3.395c0.552-1.238,0.345-2.392-0.283-3.54c-2.322-4.237-4.623-8.487-6.944-12.727
			c-8.559-15.622-17.139-31.232-25.68-46.864c-6.089-11.145-12.106-22.325-18.197-33.469c-8.586-15.715-17.201-31.416-25.82-47.113
			c-4.97-9.053-10.107-18.016-14.911-27.155c-2.902-5.52-6.369-10.75-8.647-16.594c1.943-1.023,3.886-2.045,5.829-3.069
			c0.276,0.382,0.595,0.739,0.819,1.148c6.891,12.561,13.9,25.057,20.629,37.702c23.308,43.799,47.489,87.135,69.826,131.45
			c2.342,4.645,4.718,9.272,7.067,13.888c0.676,0,1.146,0,1.615-0.001c21.355-0.059,42.712-0.438,64.068,0.085
			c0.229,1.567,0.461,3.135,0.714,4.853c7.024,0,13.968,0,20.901,0c0.23-0.811-0.249-1.345-0.555-1.903
			c-4.761-8.698-9.458-17.436-14.368-26.051c-1.164-2.041-1.521-4.688-3.881-5.975c-1.163-7.958-0.536-15.999-1.067-24.003
			c-0.601-9.02-0.865-18.079-1.198-27.124c-0.306-8.266-1.043-16.481-1.699-24.713c0.894,0.001,0.942,0.726,1.212,1.328
			c3.391,7.616,6.566,15.34,10.26,22.807c12.832,25.941,25.843,51.792,38.801,77.67c0.501,1,0.797,2.151,1.839,2.875
			c1.097,0,2.224,0,3.353,0c7.12-0.002,14.241-0.005,21.362-0.007c9.887,0.209,19.773,0.253,29.659-0.022
			c4.768,0.06,9.535,0.082,14.3,0.206C1515.786,1470.348,1517.066,1469.787,1518.07,1470.835z"/>
		<path fill-rule="evenodd" clip-rule="evenodd" fill="#231F57" d="M1225.159,1289.174c2.279,5.844,5.745,11.074,8.647,16.594
			c4.803,9.139,9.94,18.103,14.911,27.155c8.619,15.698,17.233,31.398,25.82,47.113c6.09,11.144,12.108,22.324,18.197,33.469
			c8.542,15.632,17.121,31.242,25.68,46.864c2.321,4.239,4.622,8.489,6.944,12.727c0.627,1.148,0.835,2.302,0.283,3.54
			c-0.499,1.124-0.907,2.292-1.452,3.395c-11.064,22.36-22.145,44.715-33.209,67.077c-0.375,0.756-0.626,1.572-0.935,2.362
			c-0.181,0.014-0.361,0.027-0.542,0.037c-6.982-12.285-14.002-24.548-20.942-36.858
			c-53.727-95.301-107.438-190.611-161.155-285.919c-4.984-8.843-9.979-17.683-14.936-26.542c-0.387-0.693-1.172-1.313-0.793-2.295
			c3.913,1.515,7.228,4.074,10.756,6.241c21.223,13.043,42.389,26.181,63.591,39.261c17.01,10.493,34.043,20.948,51.065,31.42
			c2.22,4.224,4.446,8.444,6.651,12.676C1224.094,1288.169,1224.455,1288.809,1225.159,1289.174z"/>
		<path fill-rule="evenodd" clip-rule="evenodd" fill="#4F8595" d="M1629.115,1549.94c0.037-0.22,0.075-0.441,0.113-0.663
			c0.293,0.025,0.585,0.052,0.876,0.078c0.087,0.146,0.281,0.384,0.244,0.426C1629.999,1550.19,1629.55,1550.043,1629.115,1549.94z"
			/>
		<path fill-rule="evenodd" clip-rule="evenodd" fill="#4F8595" d="M1289.503,1549.508c0.181-0.01,0.361-0.023,0.542-0.037
			c0.189,0.158,0.379,0.313,0.57,0.472C1290.147,1550.045,1289.684,1550.138,1289.503,1549.508z"/>
		<path fill-rule="evenodd" clip-rule="evenodd" fill="#1594A0" d="M1091.008,1197.306c0.236,0.204,0.472,0.407,0.708,0.611
			C1091.175,1198.068,1091.135,1197.637,1091.008,1197.306z"/>
		<path fill-rule="evenodd" clip-rule="evenodd" fill="#FEFEFE" d="M1393.859,1365.461c0.656,8.231,1.394,16.447,1.699,24.713
			c0.333,9.045,0.598,18.104,1.198,27.124c0.531,8.004-0.096,16.045,1.067,24.003c-0.285,4.592,0.943,9.127,0.524,13.731
			c-0.109,1.205-0.095,2.472,0.156,3.646c0.816,3.825,0.16,7.641,0.426,11.521c-1.505,0.067-2.712,0.122-3.919,0.177
			c-21.355-0.523-42.712-0.144-64.067-0.085c-0.469,0.001-0.939,0.001-1.615,0.001c-2.349-4.615-4.725-9.243-7.067-13.888
			c-22.337-44.314-46.518-87.65-69.826-131.45c-6.729-12.645-13.739-25.142-20.629-37.702c-0.224-0.409-0.543-0.766-0.819-1.148
			c-0.866-1.757-1.732-3.515-2.83-5.745c19.002,0.149,37.613,0.28,56.402-0.058c3.952,6.896,7.068,14.19,10.733,21.199
			c12.821,24.509,25.682,48.998,38.534,73.491c0.172,0.329,0.424,0.616,0.639,0.922c4.788,9.61,9.577,19.219,14.367,28.829
			c1.125,2.344,2.251,4.686,3.621,7.534c0.795-2.908-0.226-5.068-0.314-7.277c-0.24-6.025-1.032-12.014-1.23-18.061
			c-0.245-7.417-1.093-14.811-1.572-22.22c-0.293-4.519-0.11-9.082-0.657-13.564c-0.379-3.118-0.303-6.215-0.521-9.315
			c-0.488-6.931-1.124-13.853-1.674-20.779c-0.431-5.436-0.78-10.88-1.246-16.313c-0.691-8.075-1.452-16.146-2.183-24.219
			c9.099-0.012,18.2-0.012,27.3-0.042c11.287-0.037,22.575-0.099,33.863-0.149c1.04-0.005,2.079,0,3.384,0
			c2.011,4.25,4.039,8.504,6.039,12.77c5.53,11.793,11.194,23.527,16.529,35.408c5.004,11.142,10.468,22.068,15.695,33.099
			c4.045,8.538,8.05,17.125,12.501,25.476c2.818,5.881,5.638,11.76,8.457,17.641c1.063,2.284,2.128,4.568,3.487,7.486
			c-1.675-44.465,0.085-88.1-1.404-131.696c3.887-0.04,7.772-0.104,11.658-0.114c13.484-0.034,26.969-0.049,40.454-0.071
			c1.028-0.001,2.056,0,3.345,0c-0.289,63.567-2.687,126.858-2.098,190.101c-1.556,0.682-2.897,0.282-4.198,0.397
			c-1.004-1.048-2.284-0.487-3.426-0.518c-4.765-0.124-9.532-0.146-14.3-0.206c-0.157-0.102-0.316-0.29-0.474-0.29
			c-9.573-0.012-19.146-0.009-28.72,0.011c-0.155,0-0.311,0.196-0.466,0.302c-7.121,0.002-14.242,0.005-21.363,0.007
			c-6.945-15.085-14.65-29.796-22.018-44.673c-9.557-19.304-19.859-38.244-28.344-58.072c-1.768-4.131-3.532-8.263-5.497-12.86
			C1392.666,1358.623,1393.854,1362.012,1393.859,1365.461z"/>
		<path fill-rule="evenodd" clip-rule="evenodd" fill="#1C4266" d="M1348.834,1404.744c-4.79-9.61-9.579-19.219-14.367-28.829
			c0.064-6.069-0.93-12.066-1.304-18.108c-0.333-5.373-0.982-10.726-1.491-16.087c-0.357-3.764-0.639-7.535-1.086-11.288
			c-0.462-3.877,0.542-7.502,1.532-11.17c2.517-9.322,4.957-18.663,7.409-28c0.194-0.734,0.176-1.554,1.187-1.689
			c0.769,9.414,1.646,18.819,2.28,28.242c0.851,12.631,1.758,25.255,2.84,37.87c0.784,9.133,1.005,18.316,1.909,27.437
			c0.325,3.282,0.604,6.616,0.747,9.87C1348.66,1396.889,1350.122,1400.805,1348.834,1404.744z"/>
		<path fill-rule="evenodd" clip-rule="evenodd" fill="#1C4266" d="M1466.826,1404.732c-2.819-5.881-5.639-11.76-8.457-17.641
			c0.69-2.32,0.329-4.701,0.337-7.048c0.054-16.41,0.092-32.82,0.016-49.229c-0.023-5.053,0.371-9.926,2.032-14.793
			c1.947-5.707,3.146-11.664,5.28-17.329c0.204,0.029,0.405,0.058,0.607,0.087c0.02,28.362,0.014,56.723,0.087,85.085
			c0.013,4.817-0.265,9.637,0.434,14.465C1467.459,1400.385,1467.839,1402.652,1466.826,1404.732z"/>
		<path fill-rule="evenodd" clip-rule="evenodd" fill="#7F8285" d="M1348.834,1404.744c1.288-3.939-0.174-7.855-0.346-11.753
			c-0.142-3.254-0.421-6.588-0.747-9.87c-0.903-9.12-1.125-18.304-1.909-27.437c-1.083-12.615-1.989-25.239-2.84-37.87
			c-0.634-9.423-1.511-18.828-2.28-28.242c-0.365-2.324-0.847-4.642-0.273-7.251c0.764-0.523,1.691-1.157,2.617-1.792
			c0.731,8.073,1.492,16.144,2.183,24.219c0.465,5.434,0.814,10.877,1.246,16.313c0.55,6.927,1.186,13.848,1.674,20.779
			c0.218,3.1,0.142,6.197,0.521,9.315c0.546,4.482,0.364,9.045,0.657,13.564c0.479,7.409,1.328,14.803,1.572,22.22
			c0.199,6.047,0.99,12.035,1.23,18.061c0.088,2.209,1.11,4.369,0.314,7.277C1351.085,1409.43,1349.959,1407.088,1348.834,1404.744z
			"/>
		<path fill-rule="evenodd" clip-rule="evenodd" fill="#808185" d="M1466.826,1404.732c1.013-2.08,0.633-4.348,0.336-6.402
			c-0.698-4.828-0.421-9.647-0.434-14.465c-0.073-28.363-0.067-56.723-0.086-85.085c0.064-0.456,0.007-0.872-0.377-1.184
			c0-5.006,0-10.014,0-15.046c0.692-0.901,1.562-1.601,2.644-2.028c1.489,43.598-0.271,87.232,1.404,131.697
			C1468.954,1409.301,1467.89,1407.017,1466.826,1404.732z"/>
		<path fill-rule="evenodd" clip-rule="evenodd" fill="#5D8591" d="M1466.266,1297.596c0.384,0.312,0.441,0.729,0.377,1.184
			c-0.203-0.029-0.404-0.058-0.608-0.087C1466.112,1298.327,1466.188,1297.961,1466.266,1297.596z"/>
		<path fill-rule="evenodd" clip-rule="evenodd" fill="#818387" d="M1393.859,1365.461c-0.005-3.449-1.193-6.838-0.396-10.925
			c1.965,4.597,3.729,8.729,5.497,12.86c8.484,19.828,18.787,38.769,28.344,58.072c7.367,14.877,15.072,29.588,22.018,44.673
			c-1.128,0-2.255,0-3.352,0c-1.042-0.724-1.338-1.875-1.839-2.875c-12.958-25.878-25.969-51.729-38.801-77.67
			c-3.693-7.467-6.869-15.19-10.26-22.807C1394.802,1366.187,1394.753,1365.462,1393.859,1365.461z"/>
		<path fill-rule="evenodd" clip-rule="evenodd" fill="#1C4266" d="M1395.013,1470.377c1.206-0.055,2.413-0.109,3.918-0.177
			c-0.266-3.881,0.391-7.696-0.426-11.521c-0.251-1.175-0.266-2.441-0.156-3.646c0.419-4.604-0.81-9.14-0.524-13.731
			c2.36,1.287,2.717,3.934,3.881,5.975c4.91,8.615,9.607,17.353,14.368,26.051c0.306,0.559,0.785,1.093,0.555,1.903
			c-6.934,0-13.877,0-20.901,0C1395.474,1473.512,1395.242,1471.944,1395.013,1470.377z"/>
		<path fill-rule="evenodd" clip-rule="evenodd" fill="#D5D7D7" d="M1470.686,1470.134c0.155-0.105,0.311-0.302,0.466-0.302
			c9.573-0.02,19.146-0.022,28.72-0.011c0.157,0,0.316,0.188,0.474,0.29C1490.459,1470.387,1480.572,1470.343,1470.686,1470.134z"/>
	</g>
</g>
<g id="Layer_4" display="none">
	<g id="NOQnlm_1_" display="inline">
		
			<image overflow="visible" width="259" height="184" id="NOQnlm_2_" xlink:href="1A3076772D45485F.png"  transform="matrix(8.1882 0 0 8.1882 2805.6943 753.0386)">
		</image>
	</g>
</g>
</svg>
