<?xml version="1.0" encoding="utf-8"?>
<!-- Generator: Adobe Illustrator 16.0.0, SVG Export Plug-In . SVG Version: 6.00 Build 0)  -->
<!DOCTYPE svg PUBLIC "-//W3C//DTD SVG 1.1//EN" "http://www.w3.org/Graphics/SVG/1.1/DTD/svg11.dtd">
<svg version="1.1" xmlns="http://www.w3.org/2000/svg" xmlns:xlink="http://www.w3.org/1999/xlink" x="0px" y="0px" width="2732px"
	 height="2732px" viewBox="0 0 2732 2732" enable-background="new 0 0 2732 2732" xml:space="preserve">
<g id="Layer_1">
	<g id="Layer_1_1_" display="none">
		<title>safe-area</title>
		<desc>Created with Sketch.</desc>
		<g id="Page-1" display="inline">
			
				<radialGradient id="Background_1_" cx="2120.7236" cy="-0.21" r="0.6755" gradientTransform="matrix(2732 0 0 2732 -5792451.5 1940.5)" gradientUnits="userSpaceOnUse">
				<stop  offset="0" style="stop-color:#AA076B"/>
				<stop  offset="1" style="stop-color:#61045F"/>
			</radialGradient>
			<rect id="Background" fill="url(#Background_1_)" width="2732" height="2732"/>
			<text transform="matrix(1 0 0 1 936.7002 1418)" fill="#FFFFFF" font-family="'HelveticaNeue-Light'" font-size="200">(safe area)</text>
			<g id="_x33_:2-_x28_iPhone-4s_x29_" opacity="0.1">
				<rect id="Landscape-Crop-Area-_x28_Bottom_x29_" y="2278" fill="#FFFFFF" width="2733" height="454"/>
				<rect id="Landscape-Crop-Area-_x28_Top_x29_" fill="#FFFFFF" width="2733" height="454"/>
				<rect id="Portrait-Crop-Area-_x28_Right_x29_" x="2278" fill="#FFFFFF" width="454" height="2733"/>
				<rect id="Portrait-Crop-Area-_x28_Left_x29_" fill="#FFFFFF" width="454" height="2733"/>
			</g>
			
				<g id="_x31_6:9-_x28_iPhone-5_x2F_5S_x2F_5C_x2F_SE_x2F_6_x2F_6s_x2F_6-Plus_x2F_6s-Plus-_x2F_-Android-XXXHDPI_x29_" opacity="0.1">
				<rect id="Landscape-Crop-Area-_x28_Bottom_x29__1_" y="2134" fill="#FFFFFF" width="2733" height="598"/>
				<rect id="Landscape-Crop-Area-_x28_Top_x29__1_" fill="#FFFFFF" width="2733" height="598"/>
				<rect id="Portrait-Crop-Area-_x28_Left_x29__1_" fill="#FFFFFF" width="598" height="2733"/>
				<rect id="Portrait-Crop-Area-_x28_Right_x29__1_" x="2134" fill="#FFFFFF" width="598" height="2733"/>
			</g>
			<g id="_x34_:3-_x28_iPad-All_x29_" transform="translate(0.000000, 1.000000)" opacity="0.1">
				<rect id="Landscape-Crop-Area-_x28_Bottom_x29__2_" y="2391" fill="#FFFFFF" width="2733" height="342"/>
				<rect id="Landscape-Crop-Area-_x28_Top_x29__2_" fill="#FFFFFF" width="2733" height="342"/>
				<rect id="Portrait-Crop-Area-_x28_Left_x29__2_" fill="#FFFFFF" width="342" height="2733"/>
				<rect id="Portrait-Crop-Area-_x28_Right_x29__2_" x="2390" fill="#FFFFFF" width="342" height="2733"/>
			</g>
			<g id="Android-_x28_LDPI_x29_" opacity="0.1">
				<rect id="Landscape-Crop-Area-_x28_Bottom_x29__3_" y="2219" fill="#FFFFFF" width="2733" height="512.5"/>
				<rect id="Landscape-Crop-Area-_x28_Top_x29__3_" fill="#FFFFFF" width="2733" height="512.5"/>
				<rect id="Portrait-Crop-Area-_x28_Left_x29__3_" x="2220" fill="#FFFFFF" width="512.5" height="2733"/>
				<rect id="Portrait-Crop-Area-_x28_Right_x29__3_" fill="#FFFFFF" width="512.5" height="2733"/>
			</g>
			<g id="Android-_x28_MDPI_x29_" opacity="0.1">
				<rect id="Landscape-Crop-Area-_x28_Bottom_x29__4_" y="2275" fill="#FFFFFF" width="2732" height="454"/>
				<rect id="Landscape-Crop-Area-_x28_Top_x29__4_" fill="#FFFFFF" width="2732" height="454"/>
				<rect id="Portrait-Crop-Area-_x28_Left_x29__4_" x="2278" fill="#FFFFFF" width="454" height="2732"/>
				<rect id="Portrait-Crop-Area-_x28_Right_x29__4_" fill="#FFFFFF" width="454" height="2732"/>
			</g>
			<g id="Android-_x28_HDPI-_x2F_-XXHDPI_x29_" opacity="0.1">
				<rect id="Landscape-Crop-Area-_x28_Bottom_x29__5_" y="2189" fill="#FFFFFF" width="2732" height="545"/>
				<rect id="Landscape-Crop-Area-_x28_Top_x29__5_" fill="#FFFFFF" width="2732" height="545"/>
				<rect id="Portrait-Crop-Area-_x28_Left_x29__5_" x="2187" fill="#FFFFFF" width="545" height="2732"/>
				<rect id="Portrait-Crop-Area-_x28_Right_x29__5_" fill="#FFFFFF" width="545" height="2732"/>
			</g>
			<g id="Android-_x28_XHDPI_x29_" opacity="0.1">
				<rect id="Landscape-Crop-Area-_x28_Bottom_x29__6_" x="0.5" y="2135.5" fill="#FFFFFF" width="2732" height="599"/>
				<rect id="Landscape-Crop-Area-_x28_Top_x29__6_" fill="#FFFFFF" width="2732" height="597"/>
				<rect id="Portrait-Crop-Area-_x28_Left_x29__6_" x="2135" fill="#FFFFFF" width="597" height="2732"/>
				<rect id="Portrait-Crop-Area-_x28_Right_x29__6_" fill="#FFFFFF" width="597" height="2732"/>
			</g>
		</g>
	</g>
	<g id="background">
		<rect fill="#362D86" width="2734.5" height="2734.5"/>
	</g>
	<g id="Layer_4" display="none">
		<rect x="1062.107" y="1058.107" display="inline" fill="#FDA9FF" width="604.786" height="604.787"/>
	</g>
	<g id="w">
		<g>
			<path fill="#362D86" d="M1660.07,1218.474c0.483-0.065,0.975-0.194,1.537,0.349c0,121.991,0,244.144,0.001,366.3
				c-0.302-0.026-0.606-0.055-0.911-0.083c-0.144-0.892-0.872-1.231-1.51-1.703c-22.275-16.557-44.547-33.122-66.81-49.695
				c-10.581-7.875-21.154-15.758-31.702-23.675c-1.634-1.227-3.282-1.94-5.412-1.83c-3.314,0.172-6.644,0.047-9.882,0.047
				c-0.62-1.817-0.353-3.288-0.326-4.748c1.353-0.12,2.749,0.296,4.367-0.413c-0.612-65.793,1.882-131.636,2.182-197.768
				c-1.34,0-2.409,0-3.479,0.001c-14.028,0.023-28.057,0.038-42.085,0.073c-4.041,0.011-8.084,0.078-12.127,0.119
				c-1.127,0.443-2.031,1.171-2.751,2.109c0,5.236,0,10.445,0,15.653c-0.081,0.38-0.16,0.76-0.24,1.14
				c-2.222,5.895-3.469,12.092-5.494,18.029c-1.729,5.064-2.139,10.133-2.113,15.391c0.078,17.07,0.039,34.143-0.018,51.214
				c-0.008,2.441,0.369,4.917-0.352,7.333c-4.63-8.688-8.796-17.622-13.004-26.504c-5.439-11.477-11.122-22.842-16.328-34.435
				c-5.55-12.359-11.442-24.566-17.196-36.836c-2.081-4.438-4.189-8.864-6.282-13.284c-1.358,0-2.439-0.006-3.521,0
				c-11.743,0.052-23.487,0.116-35.229,0.154c-9.469,0.031-18.935,0.031-28.402,0.043c-0.964,0.66-1.928,1.32-2.722,1.864
				c-0.598,2.713-0.097,5.125,0.283,7.543c-1.051,0.141-1.032,0.994-1.233,1.757c-2.551,9.714-5.089,19.433-7.708,29.13
				c-1.031,3.816-2.074,7.587-1.593,11.621c0.465,3.904,0.758,7.827,1.129,11.743c0.529,5.578,1.205,11.146,1.552,16.736
				c0.388,6.286,1.422,12.523,1.356,18.841c-0.224-0.319-0.485-0.619-0.666-0.961c-13.37-25.482-26.749-50.958-40.087-76.456
				c-3.813-7.291-7.056-14.879-11.167-22.054c-19.546,0.352-38.909,0.216-58.677,0.06c1.142,2.32,2.043,4.148,2.945,5.977
				c-2.022,1.065-4.043,2.128-6.065,3.193c-0.733-0.38-1.107-1.045-1.475-1.751c-2.293-4.402-4.61-8.792-6.92-13.188
				c1.383-0.011,2.765-0.034,4.147-0.034c106.157-0.001,212.314-0.005,318.472,0.037c2.082,0,3.81-0.425,5.45-1.72
				c12.979-10.245,25.988-20.452,38.997-30.659c17.422-13.672,34.876-27.303,52.256-41.029
				C1654.302,1223.7,1657.839,1221.827,1660.07,1218.474z"/>
			<path fill="#6A55A4" d="M1660.07,1218.474c-2.231,3.354-5.769,5.227-8.812,7.631c-17.381,13.726-34.833,27.357-52.255,41.029
				c-13.009,10.208-26.018,20.415-38.999,30.659c-1.641,1.295-3.368,1.721-5.45,1.72c-106.157-0.042-212.315-0.038-318.472-0.037
				c-1.382,0-2.764,0.022-4.146,0.034c-17.71-10.895-35.43-21.772-53.126-32.687c-22.056-13.608-44.076-27.275-66.155-40.844
				c-3.67-2.256-7.12-4.917-11.19-6.493l0.04,0.025c-0.246-0.212-0.491-0.424-0.736-0.636c-0.22-0.944,0.553-0.559,0.871-0.571
				c1.38-0.055,2.765-0.024,4.148-0.024c183.385-0.001,366.767-0.001,550.152,0.006
				C1657.318,1218.286,1658.693,1218.409,1660.07,1218.474z"/>
			<path fill="#27214D" d="M1545.056,1503.435c-0.025,1.46-0.294,2.931,0.327,4.748c3.237,0,6.567,0.125,9.881-0.045
				c2.13-0.111,3.778,0.602,5.412,1.828c10.548,7.917,21.123,15.8,31.702,23.676c22.263,16.574,44.534,33.14,66.811,49.694
				c0.637,0.472,1.367,0.813,1.509,1.705c-0.039,0.231-0.079,0.461-0.118,0.691c-0.886,0.029-1.774,0.086-2.662,0.086
				c-115.609,0.004-231.219,0.004-346.828,0c-0.887,0-1.774-0.055-2.662-0.084c-0.198-0.165-0.397-0.327-0.594-0.492
				c0.321-0.821,0.583-1.671,0.973-2.457c11.511-23.265,23.038-46.521,34.548-69.782c0.568-1.147,0.992-2.364,1.512-3.532
				c0.574-1.288,0.359-2.488-0.295-3.683c-2.416-4.407-4.81-8.83-7.224-13.238c-8.904-16.253-17.829-32.492-26.715-48.755
				c-6.335-11.595-12.595-23.227-18.93-34.819c-8.934-16.349-17.896-32.683-26.862-49.014c-5.17-9.418-10.514-18.743-15.512-28.25
				c-3.02-5.743-6.626-11.185-8.997-17.264c2.021-1.064,4.043-2.127,6.065-3.192c0.287,0.397,0.619,0.768,0.852,1.194
				c7.169,13.066,14.46,26.067,21.462,39.223c24.247,45.565,49.403,90.65,72.642,136.751c2.436,4.832,4.908,9.646,7.351,14.447
				c0.703,0,1.192,0,1.68-0.001c22.217-0.061,44.436-0.456,66.652,0.088c0.239,1.632,0.479,3.262,0.742,5.049
				c7.309,0,14.532,0,21.746,0c0.237-0.844-0.261-1.399-0.578-1.98c-4.953-9.049-9.84-18.139-14.948-27.101
				c-1.211-2.123-1.582-4.877-4.037-6.217c-1.211-8.278-0.559-16.644-1.111-24.97c-0.624-9.383-0.898-18.81-1.245-28.219
				c-0.318-8.599-1.086-17.146-1.769-25.709c0.93,0.002,0.98,0.754,1.261,1.381c3.528,7.923,6.831,15.96,10.673,23.728
				c13.351,26.986,26.886,53.879,40.367,80.801c0.52,1.043,0.829,2.239,1.912,2.993c1.142,0,2.313,0,3.487,0
				c7.408-0.003,14.816-0.006,22.224-0.009c10.287,0.218,20.572,0.263,30.855-0.022c4.96,0.062,9.92,0.084,14.877,0.214
				C1542.681,1502.929,1544.012,1502.346,1545.056,1503.435z"/>
			<path fill="#231F57" d="M1240.331,1314.448c2.371,6.079,5.978,11.521,8.997,17.264c4.998,9.507,10.341,18.832,15.512,28.25
				c8.968,16.33,17.929,32.665,26.862,49.014c6.335,11.593,12.595,23.225,18.93,34.819c8.886,16.263,17.812,32.502,26.717,48.755
				c2.415,4.408,4.808,8.831,7.224,13.239c0.653,1.193,0.868,2.394,0.294,3.682c-0.519,1.17-0.943,2.385-1.51,3.532
				c-11.51,23.262-23.038,46.518-34.549,69.782c-0.39,0.786-0.651,1.636-0.972,2.457c-0.188,0.014-0.375,0.029-0.564,0.039
				c-7.264-12.78-14.567-25.538-21.787-38.345c-55.894-99.145-111.77-198.298-167.655-297.45c-5.185-9.2-10.38-18.396-15.538-27.613
				c-0.403-0.721-1.218-1.365-0.825-2.388c4.071,1.575,7.52,4.238,11.19,6.493c22.079,13.569,44.099,27.237,66.156,40.844
				c17.695,10.915,35.416,21.792,53.125,32.687c2.309,4.395,4.625,8.785,6.92,13.187
				C1239.224,1313.402,1239.598,1314.068,1240.331,1314.448z"/>
			<path fill="#4F8595" d="M1660.579,1585.731c0.039-0.229,0.077-0.46,0.118-0.69c0.304,0.026,0.607,0.055,0.911,0.081
				c0.09,0.152,0.293,0.399,0.253,0.443C1661.499,1585.991,1661.03,1585.838,1660.579,1585.731z"/>
			<path fill="#4F8595" d="M1307.27,1585.281c0.188-0.01,0.377-0.025,0.564-0.039c0.198,0.164,0.396,0.327,0.594,0.492
				C1307.94,1585.84,1307.458,1585.937,1307.27,1585.281z"/>
			<path fill="#1594A0" d="M1100.77,1218.875c0.246,0.212,0.491,0.424,0.737,0.636
				C1100.944,1219.667,1100.902,1219.219,1100.77,1218.875z"/>
			<path fill="#FEFEFE" d="M1415.835,1393.812c0.684,8.564,1.45,17.11,1.769,25.709c0.347,9.41,0.621,18.836,1.245,28.219
				c0.555,8.326-0.1,16.691,1.111,24.97c-0.297,4.778,0.981,9.495,0.546,14.287c-0.114,1.252-0.099,2.57,0.163,3.793
				c0.849,3.979,0.166,7.948,0.441,11.985c-1.565,0.071-2.819,0.128-4.077,0.184c-22.215-0.544-44.434-0.148-66.65-0.088
				c-0.488,0.001-0.977,0.001-1.68,0.001c-2.443-4.801-4.915-9.615-7.351-14.447c-23.239-46.102-48.395-91.187-72.642-136.751
				c-7.001-13.155-14.293-26.155-21.462-39.222c-0.233-0.426-0.565-0.797-0.852-1.194c-0.901-1.83-1.803-3.658-2.945-5.977
				c19.769,0.155,39.131,0.291,58.677-0.06c4.111,7.174,7.354,14.762,11.166,22.054c13.339,25.498,26.718,50.973,40.088,76.455
				c0.18,0.343,0.442,0.642,0.666,0.959c4.98,9.998,9.963,19.995,14.946,29.993c1.172,2.438,2.343,4.874,3.766,7.837
				c0.829-3.024-0.234-5.271-0.326-7.571c-0.25-6.268-1.072-12.497-1.279-18.788c-0.255-7.716-1.138-15.408-1.637-23.115
				c-0.306-4.701-0.115-9.448-0.683-14.111c-0.395-3.244-0.316-6.466-0.542-9.69c-0.508-7.211-1.169-14.412-1.743-21.618
				c-0.447-5.656-0.811-11.319-1.294-16.972c-0.719-8.4-1.51-16.796-2.271-25.196c9.465-0.012,18.933-0.012,28.402-0.042
				c11.741-0.038,23.485-0.103,35.227-0.155c1.083-0.006,2.164-0.001,3.522-0.001c2.092,4.421,4.201,8.847,6.282,13.285
				c5.754,12.27,11.646,24.477,17.196,36.837c5.204,11.591,10.889,22.958,16.328,34.433c4.208,8.882,8.374,17.815,13.004,26.503
				c2.933,6.117,5.866,12.234,8.799,18.352c1.107,2.376,2.215,4.753,3.628,7.787c-1.742-46.257,0.089-91.651-1.459-137.006
				c4.041-0.042,8.086-0.109,12.127-0.12c14.028-0.035,28.057-0.05,42.085-0.073c1.07-0.001,2.14,0,3.479,0
				c-0.3,66.132-2.794,131.974-2.182,197.769c-1.618,0.707-3.015,0.292-4.367,0.411c-1.045-1.089-2.377-0.506-3.564-0.538
				c-4.957-0.13-9.917-0.152-14.877-0.214c-0.163-0.105-0.329-0.302-0.492-0.302c-9.96-0.013-19.919-0.009-29.878,0.011
				c-0.161,0-0.323,0.205-0.485,0.313c-7.407,0.003-14.815,0.006-22.224,0.009c-7.225-15.693-15.24-30.999-22.904-46.475
				c-9.943-20.082-20.661-39.787-29.488-60.415c-1.838-4.298-3.675-8.595-5.719-13.379
				C1414.594,1386.698,1415.831,1390.224,1415.835,1393.812z"/>
			<path fill="#1C4266" d="M1368.994,1434.68c-4.983-9.998-9.966-19.995-14.946-29.992c0.066-6.313-0.968-12.553-1.356-18.839
				c-0.347-5.589-1.023-11.158-1.552-16.736c-0.37-3.915-0.664-7.839-1.129-11.743c-0.481-4.033,0.564-7.804,1.593-11.62
				c2.619-9.698,5.157-19.416,7.708-29.13c0.201-0.764,0.183-1.616,1.235-1.757c0.8,9.793,1.711,19.577,2.371,29.38
				c0.886,13.141,1.83,26.274,2.955,39.398c0.815,9.5,1.046,19.056,1.985,28.544c0.339,3.414,0.63,6.882,0.778,10.268
				C1368.812,1426.507,1370.334,1430.58,1368.994,1434.68z"/>
			<path fill="#1C4266" d="M1491.744,1434.667c-2.932-6.119-5.865-12.234-8.799-18.353c0.721-2.413,0.344-4.891,0.352-7.332
				c0.057-17.071,0.096-34.144,0.018-51.213c-0.025-5.257,0.385-10.327,2.113-15.39c2.025-5.937,3.272-12.134,5.494-18.028
				c0.211,0.03,0.422,0.06,0.631,0.09c0.021,29.507,0.015,59.011,0.091,88.517c0.013,5.012-0.276,10.026,0.451,15.048
				C1492.404,1430.145,1492.799,1432.503,1491.744,1434.667z"/>
			<path fill="#7F8285" d="M1368.994,1434.68c1.34-4.1-0.182-8.173-0.359-12.228c-0.148-3.386-0.438-6.854-0.776-10.27
				c-0.939-9.487-1.17-19.042-1.986-28.542c-1.126-13.124-2.07-26.257-2.955-39.398c-0.66-9.803-1.572-19.586-2.372-29.38
				c-0.38-2.419-0.88-4.83-0.283-7.543c0.794-0.545,1.758-1.205,2.722-1.865c0.76,8.399,1.551,16.794,2.271,25.196
				c0.484,5.652,0.847,11.316,1.296,16.971c0.572,7.207,1.232,14.407,1.741,21.617c0.227,3.225,0.147,6.448,0.541,9.69
				c0.57,4.663,0.38,9.41,0.684,14.111c0.499,7.709,1.383,15.399,1.636,23.115c0.208,6.292,1.03,12.521,1.281,18.79
				c0.091,2.298,1.154,4.545,0.326,7.57C1371.337,1439.554,1370.166,1437.118,1368.994,1434.68z"/>
			<path fill="#808185" d="M1491.744,1434.667c1.055-2.164,0.66-4.522,0.351-6.66c-0.728-5.022-0.438-10.037-0.451-15.049
				c-0.076-29.506-0.07-59.01-0.089-88.516c0.066-0.474,0.006-0.907-0.393-1.232c0-5.208,0-10.417,0-15.653
				c0.719-0.938,1.624-1.667,2.751-2.109c1.548,45.355-0.283,90.75,1.459,137.007
				C1493.959,1439.42,1492.852,1437.043,1491.744,1434.667z"/>
			<path fill="#5D8591" d="M1491.162,1323.209c0.398,0.326,0.459,0.759,0.393,1.232c-0.211-0.03-0.422-0.06-0.633-0.09
				C1491.002,1323.97,1491.081,1323.59,1491.162,1323.209z"/>
			<path fill="#818387" d="M1415.835,1393.812c-0.005-3.588-1.241-7.113-0.411-11.366c2.044,4.782,3.881,9.081,5.719,13.379
				c8.827,20.628,19.545,40.332,29.488,60.414c7.664,15.477,15.68,30.78,22.904,46.474c-1.173,0-2.346,0-3.487,0
				c-1.083-0.752-1.393-1.95-1.912-2.991c-13.48-26.922-27.017-53.814-40.366-80.802c-3.843-7.767-7.146-15.804-10.673-23.727
				C1416.815,1394.565,1416.765,1393.813,1415.835,1393.812z"/>
			<path fill="#1C4266" d="M1417.035,1502.958c1.256-0.056,2.51-0.112,4.076-0.184c-0.276-4.037,0.406-8.007-0.442-11.985
				c-0.262-1.223-0.277-2.541-0.163-3.793c0.436-4.791-0.843-9.509-0.546-14.287c2.456,1.34,2.826,4.092,4.037,6.217
				c5.107,8.962,9.995,18.052,14.948,27.101c0.317,0.581,0.816,1.137,0.578,1.98c-7.214,0-14.438,0-21.746,0
				C1417.515,1506.22,1417.274,1504.59,1417.035,1502.958z"/>
			<path fill="#D5D7D7" d="M1495.761,1502.705c0.161-0.108,0.322-0.313,0.485-0.313c9.958-0.02,19.917-0.023,29.876-0.011
				c0.165,0,0.329,0.196,0.494,0.302C1516.331,1502.97,1506.046,1502.923,1495.761,1502.705z"/>
		</g>
	</g>
</g>
<g id="text" display="none">
	<rect x="1081.51" y="1134.533" display="inline" fill="none" width="591.565" height="133.198"/>
	
		<text transform="matrix(1 0 0 1 1081.5098 1203.6855)" display="inline" fill="#FFFFFF" font-family="'Roadgeek2005Series2W'" font-size="95.2518">waydowntown</text>
</g>
<g id="textoutline">
	<g>
		<path fill="#FFFFFF" d="M1086.082,1151.584h9.716l6.287,41.72l0.19,0.19c0.062-0.253,0.126-0.555,0.19-0.905
			c0.062-0.348,0.19-1,0.381-1.953c0.19-0.953,0.443-2.301,0.762-4.049c0.317-1.746,0.793-4.143,1.429-7.191
			c0.634-3.048,1.429-6.825,2.382-11.334c0.953-4.508,2.127-10.002,3.524-16.478h10.383l8.953,42.387l6.381-42.387h9.716
			l-9.524,52.103h-11.716l-9.145-38.959l-8.858,38.959h-11.716L1086.082,1151.584z"/>
		<path fill="#FFFFFF" d="M1157.043,1189.113c0-6.287,2.095-10.969,6.287-14.05c4.191-3.079,10.444-4.905,18.765-5.477
			c0-1.143,0-2.38,0-3.714s-0.176-2.572-0.524-3.715c-0.35-1.143-0.921-2.079-1.714-2.81c-0.794-0.729-1.985-1.095-3.572-1.095
			c-2.541,0-5,0.366-7.382,1.095c-2.381,0.731-4.683,1.7-6.906,2.905h-0.475c-0.191-0.634-0.415-1.381-0.667-2.238
			c-0.255-0.858-0.494-1.667-0.714-2.43c-0.224-0.762-0.415-1.396-0.572-1.905c-0.159-0.507-0.238-0.729-0.238-0.667
			c2.666-1.459,5.443-2.571,8.334-3.334c2.889-0.762,5.857-1.143,8.906-1.143c2.095,0,4.08,0.224,5.954,0.667
			c1.872,0.444,3.507,1.223,4.905,2.333c1.396,1.112,2.507,2.636,3.334,4.572c0.824,1.938,1.237,4.367,1.237,7.287v31.433
			c0.191,0.571,0.412,1.048,0.667,1.428c0.191,0.319,0.397,0.619,0.62,0.905c0.223,0.286,0.429,0.428,0.619,0.428
			c0,0.129-0.271,0.429-0.81,0.905c-0.54,0.477-1.176,0.985-1.904,1.524c-0.731,0.54-1.429,1.033-2.097,1.476
			c-0.667,0.443-1.095,0.667-1.285,0.667c-0.699,0-1.398-0.207-2.095-0.619c-0.7-0.412-1.239-0.872-1.62-1.381
			c-0.128-0.126-0.285-0.396-0.477-0.81c-0.19-0.412-0.318-0.586-0.38-0.524l-0.477-2c-1.969,1.842-3.905,3.302-5.811,4.381
			c-1.905,1.08-4.224,1.62-6.954,1.62c-2.35,0-4.35-0.414-6-1.238c-1.652-0.824-2.985-1.937-4-3.334
			c-1.017-1.396-1.762-3.047-2.239-4.953C1157.281,1193.399,1157.043,1191.336,1157.043,1189.113z M1166.569,1188.732
			c0,0.699,0.062,1.557,0.19,2.571c0.126,1.017,0.365,1.985,0.714,2.905c0.349,0.922,0.793,1.699,1.334,2.333
			c0.539,0.636,1.22,0.953,2.047,0.953h3.905c1.333-0.443,2.54-0.953,3.62-1.523c0.889-0.508,1.73-1.08,2.524-1.715
			c0.793-0.634,1.191-1.334,1.191-2.095v-15.812c-1.652-0.062-3.334,0.033-5.048,0.286c-1.714,0.254-3.208,0.731-4.478,1.429
			c-2.095,1.143-3.619,2.619-4.571,4.429C1167.044,1184.302,1166.569,1186.383,1166.569,1188.732z"/>
		<path fill="#FFFFFF" d="M1211.909,1215.497c0.824,0,1.54-0.461,2.143-1.381c0.603-0.922,1.111-1.953,1.524-3.096
			c0.412-1.144,0.714-2.239,0.905-3.286c0.19-1.048,0.286-1.731,0.286-2.048l-13.526-54.103h10.192l8.477,42.767l8.574-42.767h9.811
			c0,0.254-0.034,0.556-0.096,0.904c-0.064,0.35-0.224,1.017-0.477,2.001c-0.254,0.984-0.619,2.414-1.096,4.285
			c-0.477,1.875-1.127,4.446-1.952,7.715c-0.827,3.272-1.844,7.351-3.049,12.24c-1.207,4.891-2.667,10.859-4.382,17.908
			c-0.128,0.254-0.271,0.714-0.429,1.381c-0.159,0.667-0.238,1.159-0.238,1.477c-0.191,0.509-0.461,1.461-0.81,2.857
			c-0.35,1.396-0.714,2.811-1.095,4.238c-0.381,1.43-0.856,3.254-1.429,5.478c-0.636,1.715-1.302,3.301-2,4.763
			c-0.7,1.459-1.524,2.729-2.477,3.81c-0.953,1.079-2.129,1.919-3.525,2.523c-1.397,0.603-3.081,0.906-5.048,0.906
			c-0.381,0-0.904-0.017-1.571-0.048c-0.667-0.032-1.319-0.064-1.953-0.095c-0.636-0.033-1.176-0.081-1.619-0.143
			c-0.446-0.064-0.668-0.128-0.668-0.191v-8.096H1211.909z"/>
		<path fill="#FFFFFF" d="M1259.438,1203.687c-0.064,0-0.112-0.032-0.143-0.096c-0.033-0.062-0.081-0.095-0.144-0.095
			c-2.034-1.524-3.667-3.27-4.905-5.239c-1.239-1.967-2.208-4.079-2.905-6.333c-0.7-2.254-1.16-4.587-1.381-7.001
			c-0.224-2.413-0.333-4.826-0.333-7.239c0-2.604,0.142-5.334,0.429-8.192c0.286-2.857,0.904-5.572,1.856-8.144
			c0.954-2.572,2.317-4.81,4.096-6.716c1.777-1.904,4.158-3.205,7.144-3.905h2.668c1.524,0,2.905,0.143,4.143,0.429
			c1.239,0.286,2.461,0.969,3.667,2.047c0.318,0.319,0.651,0.763,1,1.334c0.349,0.572,0.778,0.921,1.287,1.048v-21.051h9.62v69.153
			h-8.668l-0.381-5.334c-0.699,1.143-1.477,2.081-2.333,2.81c-0.858,0.73-1.7,1.571-2.524,2.524c-1.081,0.443-2.081,0.777-3,1
			c-0.921,0.222-1.921,0.333-3.001,0.333c-1.142,0-2.191-0.128-3.143-0.381C1261.534,1204.384,1260.517,1204.067,1259.438,1203.687z
			 M1259.628,1177.396c0,2.476,0.079,4.953,0.238,7.43c0.159,2.477,0.747,4.858,1.763,7.145c0.125,0.317,0.238,0.683,0.333,1.095
			c0.094,0.414,0.269,0.778,0.523,1.095l2.477,2.477c0.318,0.318,0.793,0.461,1.429,0.429c0.634-0.031,1.111-0.048,1.429-0.048
			c0.444,0,0.919,0,1.429,0c0.507,0,0.984-0.063,1.429-0.19c0.825-0.253,1.555-0.698,2.191-1.334c0.634-0.634,1.174-1.364,1.62-2.19
			c0.443-0.824,0.776-1.698,1-2.619c0.222-0.92,0.333-1.763,0.333-2.524v-21.242c0-1.079-0.19-2.143-0.571-3.19
			c-0.381-1.048-0.921-1.967-1.62-2.763c-0.699-0.793-1.524-1.443-2.477-1.953c-0.952-0.507-2-0.762-3.143-0.762
			c-2.223,0-3.905,0.731-5.048,2.19c-1.144,1.462-1.954,3.208-2.43,5.239c-0.475,2.033-0.747,4.128-0.809,6.286
			C1259.66,1174.127,1259.628,1175.937,1259.628,1177.396z"/>
		<path fill="#FFFFFF" d="M1303.539,1196.161c-1.523-2.857-2.509-5.842-2.952-8.954c-0.446-3.11-0.668-6.287-0.668-9.525
			c0-1.777,0.08-3.682,0.239-5.716c0.157-2.031,0.459-4.031,0.904-6c0.444-1.967,1.08-3.842,1.906-5.62
			c0.824-1.777,1.872-3.334,3.143-4.668c1.842-1.841,3.859-3.158,6.05-3.953c2.191-0.793,4.555-1.19,7.096-1.19
			c1.967,0,3.81,0.208,5.525,0.619c1.714,0.414,3.396,1.254,5.047,2.524c0.444,0.318,0.842,0.652,1.191,1
			c0.349,0.35,0.777,0.684,1.287,1l2.857,4.382l0.285,0.19c0,0.509,0.144,1.176,0.429,2c0.285,0.826,0.619,1.779,1,2.857
			c0.381,1.081,0.714,2.224,1,3.429c0.287,1.207,0.429,2.381,0.429,3.524v11.049c0,0.127-0.048,0.619-0.142,1.476
			c-0.096,0.857-0.208,1.477-0.335,1.857c-0.444,2.604-1.127,5.018-2.047,7.239c-0.921,2.223-2.127,4.16-3.62,5.811
			c-1.492,1.651-3.302,2.952-5.429,3.905c-2.128,0.953-4.652,1.429-7.573,1.429c-2.857,0-5.381-0.492-7.572-1.477
			c-2.191-0.983-4.238-2.491-6.144-4.524c-0.254-0.317-0.557-0.762-0.904-1.334
			C1304.19,1196.923,1303.857,1196.479,1303.539,1196.161z M1309.922,1183.303c0.19,1.397,0.429,2.89,0.714,4.477
			c0.286,1.588,0.762,3.048,1.429,4.382c0.667,1.333,1.555,2.444,2.666,3.333c1.111,0.891,2.587,1.334,4.43,1.334
			c2.287,0,4.064-0.698,5.334-2.096c1.27-1.396,2.206-3.096,2.811-5.096c0.602-2,0.966-4.11,1.094-6.333
			c0.127-2.223,0.191-4.127,0.191-5.716c0-1.523-0.064-3.381-0.191-5.572c-0.128-2.191-0.475-4.301-1.047-6.334
			c-0.571-2.031-1.492-3.777-2.762-5.239c-1.271-1.459-3.047-2.19-5.334-2.19c-2.033,0-3.667,0.557-4.905,1.667
			c-1.239,1.111-2.208,2.54-2.907,4.287c-0.699,1.748-1.176,3.635-1.429,5.667c-0.254,2.034-0.381,3.986-0.381,5.858
			c0,1.874,0.048,3.509,0.144,4.905C1309.874,1182.033,1309.922,1182.921,1309.922,1183.303z"/>
		<path fill="#FFFFFF" d="M1348.88,1151.584h9.715l6.287,41.72l0.19,0.19c0.062-0.253,0.126-0.555,0.19-0.905
			c0.063-0.348,0.191-1,0.381-1.953c0.191-0.953,0.444-2.301,0.762-4.049c0.318-1.746,0.793-4.143,1.429-7.191
			c0.635-3.048,1.429-6.825,2.382-11.334c0.952-4.508,2.127-10.002,3.524-16.478h10.382l8.955,42.387l6.382-42.387h9.715
			l-9.525,52.103h-11.717l-9.143-38.959l-8.859,38.959h-11.715L1348.88,1151.584z"/>
		<path fill="#FFFFFF" d="M1430.891,1151.584c0-0.063,0.03,0.063,0.096,0.38c0.062,0.318,0.142,0.714,0.237,1.191
			c0.096,0.476,0.175,0.968,0.237,1.476c0.063,0.51,0.096,0.953,0.096,1.334c-0.064,0.318,0.079,0.207,0.429-0.333
			c0.348-0.539,0.65-0.936,0.904-1.19c1.396-1.524,2.953-2.572,4.668-3.144c1.715-0.572,3.587-0.857,5.62-0.857
			c3.048,0,5.476,0.588,7.286,1.762c1.81,1.175,3.191,2.667,4.144,4.477c0.954,1.81,1.572,3.81,1.857,6.001
			c0.286,2.191,0.43,4.334,0.43,6.429v34.577h-9.907v-37.625c0-0.062-0.048-0.286-0.142-0.667c-0.096-0.381-0.176-0.667-0.239-0.858
			c-0.509-1.905-1.189-3.364-2.048-4.381c-0.857-1.016-2.302-1.524-4.334-1.524c-2.541,0-4.492,0.922-5.858,2.763
			c-1.365,1.842-2.081,3.969-2.143,6.382l-0.476,35.91h-9.621v-52.103H1430.891z"/>
		<path fill="#FFFFFF" d="M1468.418,1159.68v-8.001h5.334l0.381-0.286v-13.621h9.62v13.906h7.431v8.001h-7.335v32.481
			c0,0.699,0.222,1.492,0.666,2.38c0.444,0.89,1.111,1.334,2.002,1.334h4.667v7.62c0,0.128-0.144,0.222-0.429,0.286
			c-0.286,0.062-0.636,0.11-1.048,0.144c-0.414,0.031-0.827,0.047-1.239,0.047c-0.413,0-0.746,0-1,0c-1.271,0-2.476,0-3.619,0
			s-2.239-0.111-3.286-0.333c-1.048-0.222-2.017-0.62-2.905-1.191c-0.891-0.571-1.684-1.396-2.381-2.476
			c-0.064-0.062-0.176-0.412-0.333-1.048c-0.159-0.634-0.319-1.317-0.478-2.048c-0.158-0.729-0.302-1.429-0.429-2.095
			c-0.128-0.667-0.189-1.096-0.189-1.286v-33.814H1468.418z"/>
		<path fill="#FFFFFF" d="M1506.231,1196.161c-1.523-2.857-2.509-5.842-2.953-8.954c-0.444-3.11-0.667-6.287-0.667-9.525
			c0-1.777,0.079-3.682,0.239-5.716c0.157-2.031,0.46-4.031,0.904-6c0.444-1.967,1.079-3.842,1.905-5.62
			c0.824-1.777,1.872-3.334,3.144-4.668c1.84-1.841,3.856-3.158,6.048-3.953c2.19-0.793,4.556-1.19,7.097-1.19
			c1.968,0,3.81,0.208,5.524,0.619c1.715,0.414,3.397,1.254,5.048,2.524c0.444,0.318,0.841,0.652,1.191,1
			c0.349,0.35,0.777,0.684,1.285,1l2.858,4.382l0.286,0.19c0,0.509,0.142,1.176,0.429,2c0.285,0.826,0.618,1.779,1,2.857
			c0.381,1.081,0.714,2.224,0.999,3.429c0.286,1.207,0.43,2.381,0.43,3.524v11.049c0,0.127-0.048,0.619-0.144,1.476
			s-0.207,1.477-0.334,1.857c-0.444,2.604-1.127,5.018-2.047,7.239c-0.921,2.223-2.129,4.16-3.62,5.811
			c-1.493,1.651-3.303,2.952-5.429,3.905c-2.129,0.953-4.653,1.429-7.573,1.429c-2.857,0-5.381-0.492-7.572-1.477
			c-2.19-0.983-4.239-2.491-6.144-4.524c-0.255-0.317-0.557-0.762-0.905-1.334
			C1506.883,1196.923,1506.549,1196.479,1506.231,1196.161z M1512.614,1183.303c0.189,1.397,0.428,2.89,0.714,4.477
			c0.286,1.588,0.761,3.048,1.429,4.382c0.667,1.333,1.556,2.444,2.667,3.333c1.11,0.891,2.587,1.334,4.429,1.334
			c2.287,0,4.063-0.698,5.334-2.096c1.271-1.396,2.207-3.096,2.81-5.096c0.604-2,0.968-4.11,1.096-6.333
			c0.127-2.223,0.191-4.127,0.191-5.716c0-1.523-0.064-3.381-0.191-5.572c-0.128-2.191-0.476-4.301-1.048-6.334
			c-0.57-2.031-1.492-3.777-2.762-5.239c-1.271-1.459-3.049-2.19-5.334-2.19c-2.033,0-3.667,0.557-4.906,1.667
			c-1.237,1.111-2.206,2.54-2.905,4.287c-0.698,1.748-1.175,3.635-1.429,5.667c-0.254,2.034-0.381,3.986-0.381,5.858
			c0,1.874,0.048,3.509,0.144,4.905C1512.566,1182.033,1512.614,1182.921,1512.614,1183.303z"/>
		<path fill="#FFFFFF" d="M1551.57,1151.584h9.717l6.286,41.72l0.191,0.19c0.062-0.253,0.127-0.555,0.189-0.905
			c0.063-0.348,0.191-1,0.382-1.953c0.189-0.953,0.442-2.301,0.762-4.049c0.316-1.746,0.793-4.143,1.429-7.191
			c0.634-3.048,1.429-6.825,2.381-11.334c0.953-4.508,2.128-10.002,3.525-16.478h10.382l8.953,42.387l6.382-42.387h9.717
			l-9.525,52.103h-11.717l-9.144-38.959l-8.858,38.959h-11.716L1551.57,1151.584z"/>
		<path fill="#FFFFFF" d="M1633.583,1151.584c0-0.063,0.03,0.063,0.094,0.38c0.063,0.318,0.144,0.714,0.237,1.191
			c0.096,0.476,0.175,0.968,0.239,1.476c0.062,0.51,0.096,0.953,0.096,1.334c-0.064,0.318,0.079,0.207,0.429-0.333
			c0.348-0.539,0.65-0.936,0.904-1.19c1.396-1.524,2.953-2.572,4.668-3.144c1.714-0.572,3.587-0.857,5.619-0.857
			c3.048,0,5.477,0.588,7.287,1.762c1.81,1.175,3.191,2.667,4.144,4.477c0.952,1.81,1.572,3.81,1.857,6.001
			c0.286,2.191,0.429,4.334,0.429,6.429v34.577h-9.906v-37.625c0-0.062-0.048-0.286-0.143-0.667
			c-0.096-0.381-0.177-0.667-0.238-0.858c-0.51-1.905-1.191-3.364-2.048-4.381c-0.857-1.016-2.304-1.524-4.334-1.524
			c-2.541,0-4.493,0.922-5.858,2.763c-1.367,1.842-2.081,3.969-2.143,6.382l-0.477,35.91h-9.62v-52.103H1633.583z"/>
	</g>
</g>
</svg>
